<?xml version="1.0" encoding="utf-8"?>
<!-- Generator: Adobe Illustrator 21.0.0, SVG Export Plug-In . SVG Version: 6.00 Build 0)  -->
<svg version="1.1" id="Camada_1" xmlns="http://www.w3.org/2000/svg" xmlns:xlink="http://www.w3.org/1999/xlink" x="0px" y="0px"
	 viewBox="0 0 172.8 123.6" style="enable-background:new 0 0 172.8 123.6;" xml:space="preserve">
<style type="text/css">
	.st0{fill:#FFFFFF;}
	.st1{fill:#E4405F;}
	.st2{opacity:0.15;fill:#040506;}
</style>
<g>
	<g>
		<g>
			<path class="st0" d="M18,97c0.1-0.2,0.3-0.4,0.6-0.4c0.3,0,0.5,0.2,0.5,0.5c0,0.2-0.1,0.3-0.1,0.4L8,114.1
				c-0.1,0.2-0.3,0.3-0.5,0.3S7,114.3,7,114L4.3,97.7c0-0.2-0.1-0.3,0-0.4c0-0.3,0.3-0.6,0.6-0.6s0.5,0.2,0.5,0.4l2.4,15.6L18,97z"
				/>
			<path class="st0" d="M17.2,108.2c0.4-5.6,3.3-11.8,10.4-11.8c4,0,6.2,2,5.9,6.3c-0.4,5.6-3.3,11.8-10.4,11.8
				C19.1,114.6,16.9,112.5,17.2,108.2z M32.3,102.8c0.3-3.7-1.5-5.4-5-5.4c-5.8,0-8.6,5.2-8.9,10.8c-0.3,3.7,1.5,5.4,5,5.4
				C29.2,113.6,31.9,108.4,32.3,102.8z"/>
			<path class="st0" d="M44.9,96.4c3.7,0,4.7,2.1,4.9,2.5c0,0.1,0.1,0.2,0.1,0.3c0,0.3-0.3,0.5-0.6,0.5c-0.2,0-0.3,0-0.4-0.2
				c-0.4-0.8-1.2-2.2-4.3-2.2c-5.3,0-8.6,4.6-9,10.8c-0.3,3.8,1.5,5.4,5,5.4c2.2,0,4-1,5.4-1.9c0.1-0.1,0.2-0.1,0.3-0.1
				c0.3,0,0.5,0.2,0.5,0.5c0,0.2-0.1,0.3-0.3,0.5c-0.9,0.6-3,2-6.1,2c-4.1,0-6.3-2-6-6.3C35,100.9,39,96.4,44.9,96.4z"/>
			<path class="st0" d="M49.2,108.3c0.4-5.3,3.2-11.9,10.5-11.9c3.4,0,5,1.9,4.9,3.9c-0.4,5.3-7.2,5.7-13.9,5.7
				c-0.2,0.5-0.3,1.7-0.4,2.2c-0.2,2.9,0.5,5.3,5,5.3c2.4,0,4.1-0.8,5.6-1.9c0.1-0.1,0.2-0.1,0.3-0.1c0.3,0,0.5,0.2,0.5,0.5
				c0,0.2-0.1,0.3-0.3,0.5c-1,0.8-3,2-6.2,2C51,114.6,48.9,112.6,49.2,108.3z M59.5,97.4c-3.9,0-7.2,2.3-8.5,7.7
				c5.8,0,12.3-0.2,12.6-4.5C63.7,98.7,62.2,97.4,59.5,97.4z M57,93.8c-0.1,0.1-0.2,0.2-0.4,0.2c-0.2,0-0.4-0.2-0.4-0.5
				c0-0.2,0.1-0.3,0.3-0.4l4.6-3.3c0.2-0.1,0.3-0.2,0.4-0.2c0.2,0,0.3,0.1,0.4,0.2l2.9,3.4c0.1,0.1,0.1,0.3,0.1,0.4
				c0,0.3-0.3,0.5-0.5,0.5c-0.2,0-0.3-0.1-0.4-0.2l-2.6-3.1L57,93.8z"/>
			<path class="st0" d="M79.1,112.4c-0.3,1.1-1.3,2-2.5,2c-1.1,0-1.9-0.8-1.5-2l0.2-0.9c-1.1,1.5-2.8,3.1-5.8,3.1
				c-3.6,0-5.3-2.6-5.1-6.4c0.5-6.9,5.1-11.8,10.8-11.8c1.7,0,3,0.6,3.7,1.4c0.4-0.7,1.1-1.1,2-1.1c1.1,0,1.8,0.9,1.5,2L79.1,112.4z
				 M71,111.2c2.8,0,4.8-2.2,5.7-5.7l1.2-4.6c-0.8-0.6-1.7-0.9-2.8-0.9c-3.2,0-6.1,2.8-6.5,7.9C68.5,109.7,69.4,111.2,71,111.2z"/>
			<path class="st0" d="M84.7,100.3c-0.8,0-1.4-0.6-1.3-1.4c0.1-1.1,1.1-2,2.2-2h0.8l0.5-2c0.9-3.5,3.5-6.7,8.8-6.7
				c0.9,0,1.5,0.7,1.4,1.5c-0.1,1.1-1.2,2-2.3,2c-2.1,0-3.4,1.2-3.8,2.8L90.4,97H93c0.8,0,1.4,0.6,1.3,1.4c-0.1,1.1-1.1,2-2.1,2
				h-2.6l-3.3,13.5c-1,4.2-3.8,7.9-9.2,7.9c-0.9,0-1.5-0.7-1.4-1.5c0.1-1.1,1.2-2,2.3-2c2.3,0,3.6-1.7,4.2-4.1l3.3-13.7H84.7z"/>
			<path class="st0" d="M97.3,112.4c-0.3,1.1-1.3,2-2.5,2c-1.1,0-1.8-0.9-1.6-2l3.4-13.7c0.3-1.1,1.3-2,2.6-2c1.1,0,1.8,0.9,1.5,2
				L97.3,112.4z M102.8,91.6c-0.1,1.7-1.1,3.1-3.1,3.1c-1.3,0-2-0.7-1.9-1.8c0.1-1.7,1.1-3.1,3.1-3.1
				C102.2,89.7,102.9,90.4,102.8,91.6z"/>
			<path class="st0" d="M110.3,89.2l-5.1,20.5c-0.2,0.6,0.4,0.8,0.6,0.8c0.9,0,1.5,0.6,1.4,1.5c-0.1,1.2-1.1,2.2-2.6,2.2
				c-2.5,0-3.8-1.2-3.6-3.6c0-0.4,0.1-0.8,0.2-1.2l5-20.3c0.3-1.1,1.4-2,2.5-2C109.8,87.2,110.5,88.1,110.3,89.2z"/>
			<path class="st0" d="M112.7,112.4c-0.3,1.1-1.3,2-2.5,2c-1.1,0-1.8-0.9-1.6-2l3.4-13.7c0.3-1.1,1.3-2,2.6-2c1.1,0,1.8,0.9,1.5,2
				L112.7,112.4z M118.2,91.6c-0.1,1.7-1.1,3.1-3.1,3.1c-1.3,0-2-0.7-1.9-1.8c0.1-1.7,1.1-3.1,3.1-3.1
				C117.6,89.7,118.3,90.4,118.2,91.6z"/>
			<path class="st0" d="M130.5,112.4c-0.3,1.1-1.3,2-2.5,2c-1.1,0-1.9-0.8-1.5-2l0.3-0.9c-1.1,1.5-2.8,3.1-5.8,3.1
				c-3.6,0-5.3-2.6-5.1-6.4c0.5-6.9,5.1-11.8,10.8-11.8c1.7,0,3,0.6,3.7,1.4c0.4-0.7,1.1-1.1,2-1.1c1.1,0,1.8,0.9,1.5,2L130.5,112.4
				z M122.4,111.2c2.8,0,4.8-2.2,5.7-5.7l1.2-4.6c-0.8-0.6-1.7-0.9-2.8-0.9c-3.2,0-6.1,2.8-6.5,7.9
				C119.9,109.7,120.8,111.2,122.4,111.2z"/>
			<path class="st0" d="M147.8,97.9l2.2-8.7c0.3-1.1,1.4-2,2.5-2c1.1,0,1.8,0.9,1.6,2l-4.4,17.8c-1.2,5-4.5,7.5-9.5,7.5
				c-4.3,0-6.7-2.5-6.4-6.9c0.5-6.9,4.6-11.2,10.1-11.2C145.6,96.4,147.1,97.2,147.8,97.9z M146.8,101.8c0,0-0.8-1.9-3.3-1.9
				c-3.3,0-5.4,3.2-5.7,7.2c-0.2,2.4,0.9,4,3,4c2.2,0,4.1-1.5,4.7-4.1L146.8,101.8z"/>
			<path class="st0" d="M168.8,103c-0.4,5.8-3.8,11.6-10.9,11.6c-4.3,0-6.8-2.1-6.4-6.6c0.4-5.8,3.8-11.6,10.9-11.6
				C166.6,96.4,169.1,98.5,168.8,103z M164.6,103.6c0.2-2.5-0.9-3.7-3.1-3.7c-3.9,0-5.7,4.2-5.9,7.5c-0.2,2.5,0.9,3.7,3.1,3.7
				C162.6,111.1,164.4,107,164.6,103.6z"/>
		</g>
	</g>
	<g>
		<path class="st0" d="M113.3,57.9c-8.7,0-14-10.1-16.2-15.4L84.5,65.1c5.3,7.4,14,14.1,28,14.1c31.4,0,39.1-30.6,39.1-30.6H130
			C130,48.5,125.1,57.9,113.3,57.9z"/>
		<path class="st1" d="M51.8,76.5h26.4l19-34.2c0,0,8.3-15.4,18.8-15.4s14.2,6.6,14,9.2h22.5c0,0-4.9-30.7-34.4-30.7
			S74.6,35.7,74.6,35.7L51.8,76.5z"/>
		<polygon class="st0" points="24.6,11 51,11 67,49.3 51.8,76.5 		"/>
		<polygon class="st2" points="51.8,76.5 62.7,39.2 67,49.3 		"/>
		<path class="st2" d="M97.1,42.5L84.5,65.1l14.1-19.3C98,44.6,97.5,43.5,97.1,42.5z"/>
	</g>
</g>
</svg>
